<svg width="213" height="213" viewBox="0 0 213 213" fill="none" xmlns="http://www.w3.org/2000/svg">
<g id="fluent:money-hand-20-filled" clip-path="url(#clip0_309_900)">
<path id="Vector" d="M108.718 177.661C106.608 179.77 103.746 180.956 100.763 180.956C97.779 180.956 94.9175 179.77 92.8077 177.661L55.6846 140.537C53.5749 138.428 52.3896 135.566 52.3896 132.583C52.3896 129.599 53.5749 126.737 55.6846 124.628L65.1935 115.119L65.1935 80.4564C65.1941 75.4858 67.1684 70.7189 70.6824 67.2034L108.718 29.1682C109.421 28.4649 110.375 28.0698 111.369 28.0698C112.364 28.0698 113.318 28.4649 114.021 29.1682C114.724 29.8714 115.119 30.8252 115.119 31.8198C115.119 32.8144 114.724 33.7682 114.021 34.4715L75.9857 72.5067C73.8785 74.6177 72.6958 77.479 72.6976 80.4617L72.6976 107.615L89.0583 91.2539L89.053 82.2012C89.0537 81.2061 89.4497 80.252 90.1538 79.5488C90.858 78.8457 91.8126 78.451 92.8077 78.4517C93.3005 78.4521 93.7883 78.5495 94.2434 78.7384C94.6985 78.9272 95.1119 79.2039 95.4601 79.5526C96.1633 80.2567 96.5579 81.2114 96.5572 82.2065V114.026C96.5572 118.502 97.8989 119.653 98.583 120.061C99.7233 120.756 101.267 120.836 103.494 120.878C104.533 120.899 105.255 120.624 105.891 119.775C106.681 118.709 107.615 116.323 107.615 111.369V98.5035L107.62 95.4647C107.619 94.9714 107.716 94.4828 107.904 94.0269C108.092 93.5709 108.369 93.1567 108.718 92.8078C112.822 88.703 116.922 84.5399 118.905 80.2867C119.855 78.2555 120.205 76.4312 119.961 74.7341C119.722 73.0742 118.863 71.1332 116.673 68.9429C115.969 68.2397 115.574 67.2858 115.574 66.2913C115.574 65.2967 115.969 64.3429 116.673 63.6396L124.628 55.6847C126.737 53.5749 129.599 52.3896 132.582 52.3896C135.566 52.3896 138.428 53.5749 140.537 55.6847L177.661 92.8078C179.77 94.9176 180.956 97.779 180.956 100.763C180.956 103.746 179.77 106.608 177.661 108.718L108.718 177.661ZM103.414 129.931C105.641 132.158 108.393 133.789 111.416 134.672C114.439 135.555 117.636 135.663 120.712 134.985C123.787 134.307 126.642 132.865 129.014 130.792C131.385 128.719 133.196 126.083 134.28 123.126C135.363 120.168 135.685 116.986 135.214 113.872C134.743 110.758 133.495 107.812 131.586 105.308C129.677 102.803 127.167 100.819 124.289 99.5404C121.411 98.2613 118.257 97.7278 115.119 97.9891L115.119 98.5194V111.375C115.119 117.028 114.09 121.313 111.91 124.246C110.932 125.59 109.635 126.671 108.137 127.392C106.639 128.113 104.985 128.451 103.324 128.377L102.969 128.372L101.993 128.35C102.437 128.903 102.911 129.431 103.414 129.931ZM140.537 71.5946L143.189 68.9429L137.886 63.6396L135.234 66.2913C134.531 66.9945 133.577 67.3896 132.582 67.3896C131.588 67.3896 130.634 66.9945 129.931 66.2913L127.279 63.6396L124.415 66.5034C125.96 68.6016 126.977 71.0409 127.38 73.6151C129.503 74.7222 131.923 75.1231 134.29 74.7597C136.656 74.3964 138.845 73.2875 140.537 71.5946ZM111.369 164.402L108.718 161.751C106.608 159.641 103.746 158.456 100.763 158.456C97.779 158.456 94.9175 159.641 92.8077 161.751L90.1561 164.402L95.4594 169.706L98.111 167.054C98.8143 166.351 99.7681 165.956 100.763 165.956C101.757 165.956 102.711 166.351 103.414 167.054L106.066 169.706L111.369 164.402ZM71.5945 140.537C73.7043 138.428 74.8896 135.566 74.8896 132.583C74.8896 129.599 73.7043 126.737 71.5945 124.628L68.9429 121.976L63.6396 127.279L66.2912 129.931C66.9945 130.634 67.3896 131.588 67.3896 132.583C67.3896 133.577 66.9945 134.531 66.2912 135.234L63.6396 137.886L68.9429 143.189L71.5945 140.537ZM161.751 92.8078C159.641 94.9176 158.456 97.779 158.456 100.763C158.456 103.746 159.641 106.608 161.751 108.718L164.402 111.369L169.706 106.066L167.054 103.414C166.351 102.711 165.956 101.757 165.956 100.763C165.956 99.7682 166.351 98.8143 167.054 98.1111L169.706 95.4594L164.402 90.1561L161.751 92.8078Z" fill="#006766"/>
</g>
<defs>
<clipPath id="clip0_309_900">
<rect width="150" height="150" fill="white" transform="translate(106.066 212.132) rotate(-135)"/>
</clipPath>
</defs>
</svg>
